<svg xmlns="http://www.w3.org/2000/svg" xmlns:xlink="http://www.w3.org/1999/xlink" width="351.332" height="608.104" viewBox="0 0 351.332 608.104"><defs><style>.a{fill:url(#a);}.b{fill:url(#b);}.c{fill:url(#c);}.d{fill:url(#d);}.e{fill:url(#e);}.f{fill:url(#f);}.g{fill:url(#i);}.h{fill:url(#j);}.i{fill:url(#k);}.j{fill:url(#m);}.k{fill:url(#o);}.l{opacity:0.56;fill:url(#p);}.m{fill:url(#v);}.n{fill:#fea436;}.o{fill:#f1f1f1;}.p{fill:#c7d1d9;}.q{fill:#e9c7a8;}.r{fill:#513833;}.s{fill:#1f1e4c;}.t{fill:#e97919;}.u{fill:#1f1e4b;}.v{fill:#deb296;}.w{fill:#deb196;}.x{fill:#ceb097;}.y{fill:#e5c4a8;}</style><linearGradient id="a" x1="0.827" y1="0.632" x2="-0.015" y2="-0.472" gradientUnits="objectBoundingBox"><stop offset="0.022" stop-color="#0b0f3b"/><stop offset="1" stop-color="#125ba6"/></linearGradient><linearGradient id="b" x1="-0.151" y1="-0.906" x2="1.132" y2="1.224" gradientUnits="objectBoundingBox"><stop offset="0.004" stop-color="#fcb160"/><stop offset="1" stop-color="#fa5c71"/></linearGradient><linearGradient id="c" x1="0.796" y1="0.582" x2="0.059" y2="-0.302" gradientUnits="objectBoundingBox"><stop offset="0.004" stop-color="#2332c0"/><stop offset="1" stop-color="#1a86f4"/></linearGradient><linearGradient id="d" y1="0.5" x2="1" y2="0.5" gradientUnits="objectBoundingBox"><stop offset="0.002" stop-color="#add0ff"/><stop offset="1" stop-color="#92c3f4" stop-opacity="0"/></linearGradient><linearGradient id="e" x1="0.693" y1="0.73" x2="0.039" y2="-0.048" xlink:href="#c"/><linearGradient id="f" x1="-0.023" y1="-0.694" x2="1.259" y2="1.436" xlink:href="#b"/><linearGradient id="i" x1="0.691" y1="0.656" x2="-0.031" y2="0.066" xlink:href="#c"/><linearGradient id="j" x1="0.104" y1="-0.482" x2="1.387" y2="1.648" xlink:href="#b"/><linearGradient id="k" x1="0.796" y1="0.582" x2="0.059" y2="-0.302" xlink:href="#c"/><linearGradient id="m" x1="1.069" y1="1.202" x2="0.314" y2="0.271" xlink:href="#c"/><linearGradient id="o" x1="0.5" y1="0.214" x2="0.5" y2="0.931" xlink:href="#b"/><linearGradient id="p" x1="0" y1="0.5" x2="1" y2="0.5" xlink:href="#c"/><linearGradient id="v" x1="0.5" y1="-0.109" x2="0.5" y2="3.718" gradientUnits="objectBoundingBox"><stop offset="0.004" stop-color="#fcb160" stop-opacity="0"/><stop offset="0.037" stop-color="#fbac60" stop-opacity="0.055"/><stop offset="0.192" stop-color="#fb9765" stop-opacity="0.302"/><stop offset="0.345" stop-color="#fa8568" stop-opacity="0.518"/><stop offset="0.494" stop-color="#fa766b" stop-opacity="0.69"/><stop offset="0.636" stop-color="#fa6a6e" stop-opacity="0.824"/><stop offset="0.771" stop-color="#fa626f" stop-opacity="0.922"/><stop offset="0.896" stop-color="#fa5d70" stop-opacity="0.98"/><stop offset="1" stop-color="#fa5c71"/></linearGradient></defs><g transform="translate(-1272 -3904)"><g transform="translate(1433.011 3904)"><path class="a" d="M1059.859,51.751l-71.2,41.378c-9.221,5.359-24.229,5.359-33.511,0L883.477,51.751c-4.671-2.7-7-6.238-6.994-9.772L876.422,63.6c-.011,3.536,2.323,7.076,6.993,9.774l71.669,41.378c9.281,5.359,24.29,5.359,33.511,0l71.2-41.379c4.581-2.662,6.873-6.148,6.884-9.637l.06-21.625C1066.734,45.6,1064.44,49.088,1059.859,51.751Z" transform="translate(-876.422 195.648)"/><path class="b" d="M1059.859,49.222,988.656,90.6c-9.221,5.359-24.229,5.359-33.511,0L883.477,49.224c-4.671-2.7-7-6.238-6.994-9.774l-.061,21.625c-.011,3.534,2.323,7.076,6.993,9.772l71.669,41.378c9.281,5.359,24.29,5.359,33.511,0l71.2-41.378c4.581-2.663,6.873-6.148,6.884-9.639l.06-21.624C1066.734,43.076,1064.44,46.561,1059.859,49.222Z" transform="translate(-876.422 194.25)"/><path class="c" d="M1059.859,46.405l-71.2,41.379c-9.221,5.359-24.229,5.359-33.511,0L883.477,46.407c-4.671-2.7-7-6.238-6.994-9.774l-.061,21.625c-.011,3.534,2.323,7.076,6.993,9.772l71.669,41.379c9.281,5.357,24.29,5.357,33.511,0l71.2-41.378c4.581-2.663,6.873-6.148,6.884-9.639l.06-21.624C1066.734,40.259,1064.44,43.744,1059.859,46.405Z" transform="translate(-876.422 192.693)"/><path class="d" d="M1059.729,47.216c9.281,5.359,9.33,14.052.109,19.411l-71.2,41.379c-9.221,5.359-24.229,5.359-33.511,0L883.455,66.628c-9.281-5.359-9.331-14.052-.11-19.411l71.2-41.379c9.221-5.359,24.229-5.359,33.511,0Z" transform="translate(-876.4 173.445)"/><path class="e" d="M1059.729,46.589c9.281,5.359,9.33,14.052.109,19.411l-71.2,41.379c-9.221,5.359-24.229,5.359-33.511,0L883.455,66c-9.281-5.359-9.331-14.052-.11-19.411l71.2-41.379c9.221-5.359,24.229-5.359,33.511,0Z" transform="translate(-876.4 173.098)"/><path class="f" d="M1059.859,15.386l-71.2,41.378c-9.221,5.359-24.229,5.359-33.511,0L883.477,15.386c-4.671-2.7-7-6.236-6.994-9.772l-.061,21.624c-.011,3.536,2.323,7.076,6.993,9.774l71.669,41.378c9.281,5.359,24.29,5.359,33.511,0l71.2-41.379c4.581-2.662,6.873-6.146,6.884-9.637l.06-21.625C1066.734,9.238,1064.44,12.723,1059.859,15.386Z" transform="translate(-876.422 175.543)"/><path class="c" d="M1059.859,12.569l-71.2,41.379c-9.221,5.357-24.229,5.359-33.511,0L883.477,12.569c-4.671-2.7-7-6.236-6.994-9.772l-.061,21.624c-.011,3.536,2.323,7.076,6.993,9.774l71.669,41.378c9.281,5.359,24.29,5.359,33.511,0l71.2-41.379c4.581-2.662,6.873-6.146,6.884-9.637l.06-21.624C1066.734,6.421,1064.44,9.908,1059.859,12.569Z" transform="translate(-876.422 173.986)"/><path class="d" d="M1059.729,13.38c9.281,5.359,9.33,14.052.109,19.411l-71.2,41.379c-9.221,5.357-24.229,5.357-33.511,0L883.455,32.79c-9.281-5.357-9.331-14.052-.11-19.411L954.548-28c9.221-5.359,24.229-5.359,33.511,0Z" transform="translate(-876.4 154.738)"/><path class="g" d="M1059.729,12.753c9.281,5.359,9.33,14.052.109,19.411l-71.2,41.379c-9.221,5.359-24.229,5.359-33.511,0L883.455,32.163c-9.281-5.357-9.331-14.052-.11-19.409l71.2-41.379c9.221-5.359,24.229-5.359,33.511,0Z" transform="translate(-876.4 154.391)"/><path class="h" d="M1059.859-18.451l-71.2,41.379c-9.221,5.359-24.229,5.359-33.511,0L883.477-18.449c-4.671-2.7-7-6.238-6.994-9.774L876.422-6.6c-.011,3.536,2.323,7.076,6.993,9.772l71.669,41.379c9.281,5.357,24.29,5.357,33.511,0l71.2-41.379c4.581-2.662,6.873-6.148,6.884-9.637l.06-21.625C1066.734-24.6,1064.44-21.112,1059.859-18.451Z" transform="translate(-876.422 156.836)"/><path class="i" d="M1059.859-21.267l-71.2,41.378c-9.221,5.359-24.229,5.359-33.511,0L883.477-21.267c-4.671-2.7-7-6.238-6.994-9.772l-.061,21.624c-.011,3.536,2.323,7.076,6.993,9.774l71.669,41.378c9.281,5.359,24.29,5.359,33.511,0L1059.8.357c4.581-2.662,6.873-6.148,6.884-9.637l.06-21.625C1066.734-27.415,1064.44-23.93,1059.859-21.267Z" transform="translate(-876.422 155.279)"/><path class="d" d="M1059.729-20.456c9.281,5.357,9.33,14.052.109,19.409l-71.2,41.379c-9.221,5.359-24.229,5.359-33.511,0L883.455-1.045c-9.281-5.359-9.331-14.052-.11-19.411l71.2-41.379c9.221-5.357,24.229-5.359,33.511,0Z" transform="translate(-876.4 136.031)"/><path class="j" d="M1059.729-21.083c9.281,5.359,9.33,14.052.109,19.411l-71.2,41.378c-9.221,5.359-24.229,5.359-33.511,0L883.455-1.672c-9.281-5.359-9.331-14.052-.11-19.411l71.2-41.378c9.221-5.359,24.229-5.359,33.511,0Z" transform="translate(-876.4 135.685)"/><path class="j" d="M1059.729-21.083c9.281,5.359,9.33,14.052.109,19.411l-71.2,41.378c-9.221,5.359-24.229,5.359-33.511,0L883.455-1.672c-9.281-5.359-9.331-14.052-.11-19.411l71.2-41.378c9.221-5.359,24.229-5.359,33.511,0Z" transform="translate(-876.4 135.685)"/><path class="k" d="M943.554-48.177c6.319-3.648,16.656-3.648,22.975,0l33.084,19.1c6.319,3.648,6.319,9.617,0,13.263l-32.734,18.9c-6.317,3.648-16.656,3.648-22.973,0l-33.085-19.1c-6.319-3.648-6.319-9.615,0-13.263Z" transform="translate(-860.025 144.291)"/><g transform="translate(63.15 0)"><path class="l" d="M948.9-81.564l32.01,18.481L949.1-44.717,917.089-63.2Z" transform="translate(-917.089 127.345)"/><path class="l" d="M948.9-76.836l32.01,18.481L949.1-39.989,917.089-58.47Z" transform="translate(-917.089 129.959)"/><path class="l" d="M917.089-46.9,949-111.046l.1,82.628Z" transform="translate(-917.089 111.046)"/><path class="l" d="M969.584-46.9l-31.911-64.147-.1,82.628Z" transform="translate(-905.763 111.046)"/><path class="l" d="M917.089-65.009,949.1-24.366V-46.527Z" transform="translate(-917.089 136.498)"/><path class="l" d="M969.713-65.009,937.7-24.366V-46.527Z" transform="translate(-905.692 136.498)"/></g><path class="m" d="M914.2,4.453,891.388-99.928H1035.1L1012.475,5.528Z" transform="translate(-868.148 117.193)"/></g><g transform="translate(1269.868 4091)"><path class="n" d="M98.5,123.2c1.4,1,2.7,2.7,4.2,2.9,13.9,1.8,27.1-1.8,40.3-5.6,5.7-1.6,11.3-3.8,17-5.4,1.6-.5,3.4-.1,5.2-.1,1.8,4.3,3.7,8.6,5.5,13,1.1,4.6,2.2,9.3,3.4,13.9,1.3,4.8-.2,7.5-4.6,9.7-18.5,9-37.4,16.4-57.9,18a24.6,24.6,0,0,0-3.3.6c-.9,7.8-1.7,15.4-2.6,22.9-2.4,9.1-6.7,16.2-16.3,18.1-9.2-.2-18.5,0-27.7-.6-9.7-.6-19.3-2-29-3-2.3-.2-4.7-1.1-6.8-.6-5.1,1.3-6-1.6-6.9-5.8-2.7-12.9-2.4-25.6,2.6-37.6,6.5-15.4,9.1-31.5,11.3-48.1,2.4-18.3,9.7-35.2,18.6-51.2,1.8-3.2,3.9-5.2,7.5-4.9H75.9c7.1.4,6.8.5,8.2,7.9C86,77,88.3,86.5,90.5,96.1a12.266,12.266,0,0,0,1.7,3.2C94.2,107.3,96.3,115.2,98.5,123.2Z"/><path class="o" d="M32.5,207.6c9.7,1,19.3,2.4,29,3,9.2.6,18.5.5,27.7.6C84.5,230.6,79.7,250,75,269.4c-1.4,5.7-2.7,11.4-4,17-2.1,4.3-4.7,8.5-6.3,13.1-2.8,7.8-5,15.9-7.5,23.8-.7,2.2-2.1,4.2-3,6.4-2.5,6.6-5,13.3-7.4,19.9-2.3,6.4-3.2,13.8-6.8,19.2-4.6,6.8-4,16.5-11.2,21.6-6.9,0-13.8.1-20.7.1-.1-3.4-.3-6.4,1.3-9.9,2.1-4.4,1.9-9.9,2.8-15,.4-2.6.9-5.2,1.4-7.9,1.5-8.4,2.9-16.9,4.6-25.3.6-3,2-5.8,2.6-8.8a14.957,14.957,0,0,0-.2-3.9c.7-2,1.5-3.3,1.7-4.8.4-3.7.5-7.5.9-11.3.5-4.5,1.1-9.1,1.6-13.6.1-.7-.1-1.9.2-2.2,4-2.4,1.8-5.3.8-7.9.8-1.4,2-2.5,2.2-3.9a87.738,87.738,0,0,0,1-11.5c.1-7.8,0-15.5.1-23.3a29.192,29.192,0,0,1,.9-5v5.7c.4,0,.8-.1,1.2-.1-.4-1.8-.8-3.7-1.2-5.5,0-4.4-.2-8.7.1-13,.2-3.8-1.6-8.1,2.4-11.3C33,211.5,32.4,209.1,32.5,207.6Z"/><path class="p" d="M71,286.4c1.3-5.7,2.6-11.4,4-17,4.7-19.4,9.5-38.8,14.2-58.2,9.6-1.9,13.9-9,16.3-18.1,1.2,4.3,3,8.6,3.6,13,2.7,19.3,5.4,38.7,7.5,58.1,1.4,13.3,2.2,26.6,2.7,40,.6,14.7.8,29.3,1,44,.2,12.2,0,24.5.1,36.7,0,2.8-.4,4.8-3.6,4.3H98.3c-3.6.4-3.8-2.6-4.3-5-2.7-11.5-5.4-23.1-8-34.7-3.6-15.6-7.2-31.1-10.9-46.7C73.8,297.4,72.4,291.9,71,286.4Z"/><path class="q" d="M75.7,59.4H58.8c1-5.2,2-10.4,2.9-15.7,3-2.2,6-4.2,4-9.1a5.5,5.5,0,0,1,4.6-7.4c3.1-.2,4.3-1.9,5.5-4.1,2.3-4.1,5.2-6.8,10.4-6,2.3.4,4.8-.7,7.2-1,3.3,10.5,4.3,21.2,2.1,32-2,9.8-5.4,11.6-14.2,7.9-2.1-.9-4.1-1.9-7.1-3.2C74.9,55.6,75.3,57.5,75.7,59.4Z"/><path class="r" d="M93.5,16.1c-2.4.4-4.9,1.4-7.2,1-5.1-.8-8,1.9-10.4,6-1.3,2.2-2.5,4-5.5,4.1-3.5.2-5.8,4.1-4.6,7.4,1.9,4.9-1,6.9-4,9.1C53.5,36,52.2,27.9,57.1,14,60,5.7,65.8,2,76.4,2c3.8,0,7.6.4,11.4.7s7.6.7,11.5,1C101,8.8,99.5,12,93.5,16.1Z"/><path class="s" d="M25.3,399.4c9.8,7.3,20.9,11.1,32.4,13.7,2,.5,4.9,0,4.5,3.9-.4,3.7-2.4,4-5.4,4-16.3-.1-32.6-.1-49-.1-5.4,0-5.9-.6-5.6-6.5.2-3.2.5-6.4.4-9.6,0-2.6,1-3.4,3.3-3.2C12.3,400.9,18.8,400.2,25.3,399.4Z"/><path class="t" d="M98.5,123.2c-2.1-7.9-4.3-15.9-6.4-23.8,11.9-2,23.3-5.7,33.7-12.2.9-.5,2.3,0,3.5,0,1.5,3.7,3,7.3,4.6,11,.9,2.9-.1,5-2.3,7C121.7,113.7,111.3,120.8,98.5,123.2Z"/><path class="u" d="M117.7,399.6c1.3.3,2.8.4,3.8,1.1,9.5,6.4,20,10,30.9,12.4,1.9.4,4.6.1,4.3,3.6-.3,3.2-1.7,4.4-5,4.4-16.6-.2-33.2-.2-49.7,0-4.4.1-5.7-1.8-5.3-6,.3-3.5.3-7,.8-10.5.1-1,1.3-1.9,2-2.8C105.7,403.3,111.8,402.1,117.7,399.6Z"/><path class="v" d="M170.7,128c-1.8-4.3-3.7-8.7-5.5-13,3-1.8,4.6-4.5,5.7-8,1-2.9,3.1-5.4,4.8-8.1.5.2,1.1.3,1.6.5a25.2,25.2,0,0,1,.6,4.7c-.1,4,1.6,4.4,4.5,2.9,3.2-1.7,6.4-3.8,9.7-5.3,1.3-.6,3.6-1.1,4.4-.4,1,.8,1.3,3.2,1,4.7-1.9,10.1-8.6,15.7-17.3,19.2C177.2,126.4,173.9,127,170.7,128Z"/><path class="w" d="M133.8,98.1c-1.5-3.7-3-7.3-4.6-11,5.8-5.3,11.5-10.7,17.4-15.9a57.028,57.028,0,0,1,6.5-4.4,10.95,10.95,0,0,1,1.1,1,34.475,34.475,0,0,1-1.2,4.6c-.8,1.9-2,3.6-2.8,5.4-2.2,5.2-1.8,6.3,3.4,8.8-1.4,4.7-6.2,3.7-9,5.7C141.2,94.6,137.4,96.2,133.8,98.1Z"/><path class="x" d="M117.7,399.6c-5.9,2.5-11.9,3.7-18.2,2.1-.4-4.2-.7-8.3-1.1-12.5h18.5C117.1,392.7,117.4,396.2,117.7,399.6Z"/><path class="y" d="M25.3,399.4c-6.5.8-12.9,1.5-19.4,2.3.7-3.7,1.4-7.5,2.1-11.2,6.9,0,13.8-.1,20.8-.1C27.6,393.4,26.4,396.4,25.3,399.4Z"/></g></g></svg>