<svg xmlns="http://www.w3.org/2000/svg" width="729.011" height="635.8" viewBox="0 0 729.011 635.8"><defs><style>.a{fill:#ffb7b7;}.b{fill:#868687;}.c{fill:#4646e8;}.d{fill:#cbcbcb;}.e{fill:#4f4f66;}.f{fill:#fff;}.g{fill:#f1f1f1;}.h{fill:#e5e5e5;}.i{fill:#f1a208;}</style></defs><g transform="translate(-127 -79)"><path class="a" d="M703.5,524.9a9.154,9.154,0,0,1,8.2-9.9h1.6l9.6-18.4,12.6,3.1-13.9,25.8a9.124,9.124,0,0,1-18.1-.6Z"/><path class="a" d="M760.9,704.5H750.2l-5-41.1h15.7Z"/><path class="b" d="M763.6,714.8H729.3v-.4A13.4,13.4,0,0,1,742.7,701h21Z"/><path class="a" d="M846.5,696.5l-10.2,2.8L820.6,661l15.1-4.1Z"/><path class="b" d="M851.9,705.8l-33.1,9-.1-.4a13.408,13.408,0,0,1,9.4-16.4h0l20.2-5.5Z"/><path class="c" d="M741.4,527l-5.3,80.7,11.4,90.5,18.7-5.7.8-80.9L782,565l44.3,124.5,20.2-7.4-16.7-80.9-9.5-76Z"/><path class="d" d="M793.1,385.3l-31.5,4.6-11.3,11.2-3.5,40.3,2.2,35.7-9.1,63s22.9-12.7,40.7,3.2,42.6,2.8,43.1-7.8Z"/><path class="c" d="M777.1,435.8h0l15.6-51h.2c1.1-.1,27.3-1.6,33.2,11.3v.1l-1.8,53,2.5,83-48.5,10.5-.4.1Z"/><path class="c" d="M759.8,432.3l2.9-43.2c-20.4,1.3-20.1,15.7-20.1,16.4l-.2,64.6-4.1,69.2,14.9-1.1Z"/><path class="c" d="M713.7,510.9l18.1-42,12.6-23.2,6.6,41.9L728.2,522Z"/><path class="a" d="M788.6,495.5a9.133,9.133,0,0,1,10.8-7,8.8,8.8,0,0,1,1.5.5l14.6-14.8,11.1,6.7-20.9,20.6a9.162,9.162,0,0,1-12.2,4.2A9.327,9.327,0,0,1,788.6,495.5Z"/><path class="c" d="M800.9,483.6l29.8-32.7L811,422.7l2-13.8,11.6-14.4.2.3c1.2,1.6,30.4,39.4,31.2,53.8s-41,50.7-42.8,52.3l-.2.2Z"/><circle class="a" cx="21.2" cy="21.2" r="21.2" transform="translate(753.7 339.4)"/><path class="e" d="M794.8,343.6l1-2.1-5.2-2.6s-5.7-9.3-16-6.7-15,4.2-15,4.2l-5.2,2.6,2.6,2.6-4.6,1.6,3.1,1.5-3.6,2.1,1.9,10.6s3.2-8.1,9.4-5,17.5-1.6,17.5-1.6l9.9,19.1s2-6.7,5.7-4.9C796.4,365,805.7,350.3,794.8,343.6Z"/><path class="f" d="M555.2,463.5,233.1,552.3,127,167.8,449.1,79Z"/><path class="g" d="M555.2,463.5,233.1,552.3,127,167.8,449.1,79Zm-318,81.6,310.7-85.7L445,86.2,134.3,171.9Z"/><path class="h" d="M379,251.2l-80.7,22.3a4.421,4.421,0,0,1-5.5-3.1l-22.3-80.7a4.421,4.421,0,0,1,3.1-5.5l80.7-22.3a4.421,4.421,0,0,1,5.5,3.1l22.3,80.7A4.379,4.379,0,0,1,379,251.2ZM274.1,185.9a2.734,2.734,0,0,0-1.9,3.3l22.3,80.7a2.734,2.734,0,0,0,3.3,1.9l80.7-22.3a2.734,2.734,0,0,0,1.9-3.3l-22.3-80.7a2.734,2.734,0,0,0-3.3-1.9Z"/><path class="i" d="M358.5,267.5l-80.7,22.3a4.017,4.017,0,0,1-4.9-2.8l-22.3-80.7a4.017,4.017,0,0,1,2.8-4.9l80.7-22.3a4.017,4.017,0,0,1,4.9,2.8l22.3,80.7A3.939,3.939,0,0,1,358.5,267.5Z"/><rect class="g" width="233.7" height="9" transform="matrix(-0.964, 0.266, -0.266, -0.964, 454.428, 287.305)"/><rect class="g" width="233.7" height="9" transform="matrix(-0.964, 0.266, -0.266, -0.964, 460.747, 309.993)"/><rect class="g" width="233.7" height="9" transform="matrix(-0.964, 0.266, -0.266, -0.964, 466.97, 332.708)"/><rect class="g" width="233.7" height="9" transform="matrix(-0.964, 0.266, -0.266, -0.964, 477.995, 372.616)"/><rect class="g" width="233.7" height="9" transform="matrix(-0.964, 0.266, -0.266, -0.964, 484.217, 395.331)"/><rect class="g" width="233.7" height="9" transform="matrix(-0.964, 0.266, -0.266, -0.964, 490.537, 418.019)"/><path class="f" d="M658.3,551.1H324.1v-399H658.2v399Z"/><path class="h" d="M658.3,551.1H324.1v-399H658.2v399ZM330,545.2H652.3V158H330Z"/><rect class="i" width="191" height="9" transform="translate(406.4 323.6)"/><rect class="i" width="191" height="9" transform="translate(406.4 347.1)"/><rect class="i" width="191" height="9" transform="translate(406.4 370.6)"/><circle class="i" cx="5.9" cy="5.9" r="5.9" transform="translate(385 323.6)"/><rect class="h" width="191" height="9" transform="translate(406.4 222.4)"/><rect class="h" width="191" height="9" transform="translate(406.4 245.9)"/><rect class="h" width="191" height="9" transform="translate(406.4 269.4)"/><circle class="h" cx="5.9" cy="5.9" r="5.9" transform="translate(385 221.4)"/><rect class="h" width="191" height="9" transform="translate(406.4 425.8)"/><rect class="h" width="191" height="9" transform="translate(406.4 449.3)"/><rect class="h" width="191" height="9" transform="translate(406.4 472.8)"/><circle class="h" cx="5.9" cy="5.9" r="5.9" transform="translate(385 424.8)"/><circle class="i" cx="68.3" cy="68.3" r="68.3" transform="translate(574.4 448.8)"/><path class="f" d="M661.6,512.8V499.7a18.9,18.9,0,0,0-37.8,0v13.1a9.8,9.8,0,0,0-9.4,9.8v30.9H671V522.6A9.8,9.8,0,0,0,661.6,512.8Zm-18.9-25.3A12.291,12.291,0,0,1,655,499.8v13H630.5v-13A12.143,12.143,0,0,1,642.7,487.5Z"/><path class="i" d="M647.8,528a5.1,5.1,0,0,0-10.2,0,4.952,4.952,0,0,0,2.2,4.2v11.1h5.7V532.2A5.043,5.043,0,0,0,647.8,528Z"/></g></svg>