<svg xmlns="http://www.w3.org/2000/svg" width="70" height="80" viewBox="0 0 70 80"><defs><style>.a{fill:#fff;}</style></defs><path class="a" d="M30,16.719v6.25a1.875,1.875,0,0,1-1.875,1.875h-6.25A1.875,1.875,0,0,1,20,22.969v-6.25a1.875,1.875,0,0,1,1.875-1.875h6.25A1.875,1.875,0,0,1,30,16.719Zm18.125-1.875h-6.25A1.875,1.875,0,0,0,40,16.719v6.25a1.875,1.875,0,0,0,1.875,1.875h6.25A1.875,1.875,0,0,0,50,22.969v-6.25A1.875,1.875,0,0,0,48.125,14.844Zm-20,15h-6.25A1.875,1.875,0,0,0,20,31.719v6.25a1.875,1.875,0,0,0,1.875,1.875h6.25A1.875,1.875,0,0,0,30,37.969v-6.25A1.875,1.875,0,0,0,28.125,29.844Zm20,0h-6.25A1.875,1.875,0,0,0,40,31.719v6.25a1.875,1.875,0,0,0,1.875,1.875h6.25A1.875,1.875,0,0,0,50,37.969v-6.25A1.875,1.875,0,0,0,48.125,29.844Zm-20,15h-6.25A1.875,1.875,0,0,0,20,46.719v6.25a1.875,1.875,0,0,0,1.875,1.875h6.25A1.875,1.875,0,0,0,30,52.969v-6.25A1.875,1.875,0,0,0,28.125,44.844Zm20,0h-6.25A1.875,1.875,0,0,0,40,46.719v6.25a1.875,1.875,0,0,0,1.875,1.875h6.25A1.875,1.875,0,0,0,50,52.969v-6.25A1.875,1.875,0,0,0,48.125,44.844ZM70,76.875V80H0V76.875A1.875,1.875,0,0,1,1.875,75H5V3.75A3.75,3.75,0,0,1,8.75,0h52.5A3.75,3.75,0,0,1,65,3.75V75h3.125A1.875,1.875,0,0,1,70,76.875ZM60,75V5H10V75H30V61.719a1.875,1.875,0,0,1,1.875-1.875h6.25A1.875,1.875,0,0,1,40,61.719V75Z"/></svg>