<svg xmlns="http://www.w3.org/2000/svg" width="616.836" height="627.395" viewBox="0 0 616.836 627.395"><defs><style>.a{opacity:0.03;}.b{fill:#fff;}</style></defs><g class="a" transform="translate(-155.93 -131.385)"><path class="b" d="M184.64,414.25a22.291,22.291,0,0,1-27.7-14.382,23.077,23.077,0,0,1-.533-11.541c12.784-53.443,61.61-183.765,239.339-238.806,76.88-23.792,150.741-24.147,219.275-1.243,56.284,18.82,93.747,48.294,111.679,62.5a21.953,21.953,0,0,1,3.551,30.716l-.178.178a22.581,22.581,0,0,1-31.249,3.551c-32.492-25.567-130.855-103.157-290.3-53.975C252.82,239.363,210.563,351.93,199.554,397.916A21.2,21.2,0,0,1,184.64,414.25Z" transform="translate(0 0)"/><path class="b" d="M639.865,679.618a27.457,27.457,0,0,1-5.5,1.065C495.516,688.141,407.274,572.91,403.545,568.116l-.71-1.065c-2.131-3.374-55.573-84.692-32.137-149.32,10.831-29.473,34.622-50.247,71.2-61.433,33.912-10.476,61.788-7.457,85.4,9.588,19.353,13.849,31.781,34.267,43.855,54.153,25.035,41.192,40.482,62.143,88.065,50.069,20.951-5.327,30.716-21.661,35.155-34.445,12.073-34.622,1.42-81.851-26.81-117.716-36.4-46.341-138.312-123.4-263.841-84.692-53.62,16.512-97.653,49.182-126.949,94.279-24.324,37.286-38.529,83.626-38.884,126.949-.533,80.431,65.516,186.428,66.049,187.316a21.811,21.811,0,0,1-6.924,30.006h0a.174.174,0,0,0-.178.177,22.319,22.319,0,0,1-30.539-6.924c-3.018-4.794-73.506-117.716-72.8-210.753.71-100.849,62.143-221.228,197.436-262.953C453.437,172,519.131,175.2,581.1,200.586c47.939,19.708,92.326,52.555,121.622,89.841,37.463,47.761,50.6,110.082,33.557,158.908-11.363,32.492-34.978,54.863-66.226,62.853-81.5,20.773-113.455-31.427-136.714-69.6-23.969-39.061-37.108-57.349-78.478-44.565-22.727,6.924-36.753,18.288-42.612,34.445-7.99,22.016-.355,50.424,7.28,70.133,0,.177.177.355.177.533a181.238,181.238,0,0,0,45.453,66.226c31.959,29.473,91.439,71.553,167.075,67.647a21.715,21.715,0,0,1,23.082,20.418v.178a21.962,21.962,0,0,1-15.447,22.016Z" transform="translate(29.134 36.824)"/><path class="b" d="M433.772,684.528a23.263,23.263,0,0,1-17.578-1.775C347.66,644.046,299.721,591.846,265.1,518.7l-.178-.533c-21.839-48.827-34.978-123.22-6.037-186.251,21.306-46.518,61.433-79.188,119.137-96.943,68.18-20.951,131.565-5.5,183.588,44.565a272.26,272.26,0,0,1,56.816,80.43,22.2,22.2,0,0,1-40.837,17.4,229.787,229.787,0,0,0-47.939-67.114c-40.126-38.173-86.822-49.359-138.667-33.38-44.92,13.849-75.814,38.351-91.794,72.973-22.9,49.714-11.008,111.68,6.037,150.031,30.539,64.629,72.8,110.614,133.163,144.7a21.815,21.815,0,0,1,8.345,29.651h0c0,.177-.178.177-.178.355A23.537,23.537,0,0,1,433.772,684.528Z" transform="translate(66.909 73.283)"/><circle class="b" cx="28.231" cy="28.231" r="28.231" transform="translate(479.552 482.785)"/></g></svg>