<svg xmlns="http://www.w3.org/2000/svg" width="112.496" height="89.989" viewBox="0 0 112.496 89.989"><defs><style>.a{fill:#fff;}</style></defs><path class="a" d="M85.759,33.767H59.041V43.61a12.656,12.656,0,1,1-25.312,0V22.236L22.322,29.091a11.225,11.225,0,0,0-5.467,9.632v8.314L2.794,55.158A5.611,5.611,0,0,0,.737,62.84L14.8,87.2a5.627,5.627,0,0,0,7.681,2.057L40.655,78.765H64.666a11.26,11.26,0,0,0,11.25-11.25h2.812a5.619,5.619,0,0,0,5.625-5.625V50.641h1.406a4.208,4.208,0,0,0,4.219-4.219V37.985A4.208,4.208,0,0,0,85.759,33.767Zm25.962-6.574L97.659,2.83A5.627,5.627,0,0,0,89.978.774L71.8,11.267H53.839a11.334,11.334,0,0,0-5.959,1.705l-5.888,3.674a5.587,5.587,0,0,0-2.637,4.763v22.2a7.031,7.031,0,0,0,14.062,0V28.142H85.759A9.85,9.85,0,0,1,95.6,37.985v5.01l14.062-8.121A5.631,5.631,0,0,0,111.721,27.193Z" transform="translate(0.023 -0.022)"/></svg>