
<?xml version="1.0" ?><!DOCTYPE svg  PUBLIC '-//W3C//DTD SVG 1.1//EN'  'http://www.w3.org/Graphics/SVG/1.1/DTD/svg11.dtd'><svg enable-background="new 0 0 128 128" height="128px" id="Layer_1" version="1.1" viewBox="0 0 128 128" width="128px" xml:space="preserve" xmlns="http://www.w3.org/2000/svg" xmlns:xlink="http://www.w3.org/1999/xlink"><g><g><path d="M64,20c-6.629,0-12,5.371-12,12v16c0,6.629,5.371,12,12,12s12-5.371,12-12V32C76,25.371,70.629,20,64,20z     M68,48c0,2.207-1.793,4-4,4s-4-1.793-4-4V32c0-2.207,1.793-4,4-4s4,1.793,4,4V48z" fill="#fff"/></g></g><path d="M64,0C39.699,0,20,19.699,20,44v40c0,24.301,19.699,44,44,44s44-19.699,44-44V44C108,19.699,88.301,0,64,0z   M100,84c0,19.852-16.148,36-36,36s-36-16.148-36-36V44C28,24.148,44.148,8,64,8s36,16.148,36,36V84z" fill="#fff"/></svg>