<svg xmlns="http://www.w3.org/2000/svg" width="96.565" height="67.593" viewBox="0 0 96.565 67.593"><defs><style>.a{fill:#fff;}</style></defs><path class="a" d="M64.191,65.764a7.313,7.313,0,0,1-6.246-3.53l-9.7-16.083L38.557,62.234A7.338,7.338,0,0,1,32.3,65.779a6.939,6.939,0,0,1-2.007-.287L9.62,59.578V86.434a4.812,4.812,0,0,0,3.651,4.677L45.89,99.273a9.807,9.807,0,0,0,4.677,0l32.649-8.162a4.838,4.838,0,0,0,3.651-4.677V59.578l-20.67,5.9A6.939,6.939,0,0,1,64.191,65.764ZM96.266,48.836,88.5,33.326a2.464,2.464,0,0,0-2.52-1.343L48.243,36.8,62.078,59.744a2.48,2.48,0,0,0,2.791,1.1l29.858-8.524a2.485,2.485,0,0,0,1.539-3.485ZM7.99,33.326.221,48.836a2.46,2.46,0,0,0,1.524,3.47L31.6,60.831a2.48,2.48,0,0,0,2.791-1.1L48.243,36.8,10.495,31.984a2.465,2.465,0,0,0-2.5,1.343Z" transform="translate(0.042 -31.963)"/></svg>