<svg xmlns="http://www.w3.org/2000/svg" xmlns:xlink="http://www.w3.org/1999/xlink" width="185.605" height="430.938" viewBox="0 0 185.605 430.938"><defs><style>.a{fill:#29b400;}.b{fill:#fff;}.c{fill:#f1a208;}.d{filter:url(#a);}</style><filter id="a" x="21.148" y="365.25" width="141.557" height="65.688" filterUnits="userSpaceOnUse"><feOffset dy="3" input="SourceAlpha"/><feGaussianBlur stdDeviation="3" result="b"/><feFlood flood-color="#3eff10" flood-opacity="0.161"/><feComposite operator="in" in2="b"/><feComposite in="SourceGraphic"/></filter></defs><g transform="translate(-1234 -6328)"><g transform="translate(1234 6328)"><path class="a" d="M194.052,348.376c0-51.253,41.549-172.876,92.8-172.876s92.8,121.622,92.8,172.876a92.8,92.8,0,1,1-185.605,0Z" transform="translate(-194.051 -175.5)"/><path class="b" d="M315.428,598.113a.763.763,0,0,1-.763-.763V277.4a.763.763,0,0,1,1.526,0V597.35A.763.763,0,0,1,315.428,598.113Z" transform="translate(-222.626 -199.459)"/><path class="b" d="M304.025,346.7a.761.761,0,0,1-.54-.224l-36.731-36.731a.763.763,0,1,1,1.079-1.079L304.564,345.4a.763.763,0,0,1-.54,1.3Z" transform="translate(-211.222 -206.996)"/><path class="b" d="M315.428,422.339a.763.763,0,0,1-.54-1.3L376.4,359.523a.763.763,0,0,1,1.079,1.079l-61.513,61.513A.761.761,0,0,1,315.428,422.339Z" transform="translate(-222.626 -219.044)"/><g class="d" transform="matrix(1, 0, 0, 1, 0, 0)"><path class="c" d="M241.007,709.4c.133.1.272.194.406.295H355.185c2.229-9.032,3.017-18.074-.313-25.927-4.744-11.189-18.786-18.174-29.949-13.369a17.046,17.046,0,0,0-6.7,5.3c-4.362-7.809-12.188-13.7-21.221-13.69-11.317.008-20.725,9.263-23.8,19.952-4.945-8.346-14.711-14.179-24.257-11.669C232.988,674.486,227.945,699.305,241.007,709.4Z" transform="translate(-203.41 -290.76)"/></g></g></g></svg>