<svg width="26" height="21" viewBox="0 0 26 21" fill="none" xmlns="http://www.w3.org/2000/svg">
<path d="M22.1 6.25849e-07H3.9C1.7461 7.20904e-07 0 1.76288 0 3.9375V17.0625C-3.25231e-07 19.2371 1.7461 21 3.9 21H22.1C24.2539 21 26 19.2371 26 17.0625V3.9375C26 1.76288 24.2539 0 22.1 0V6.25849e-07ZM21.229 2.625L13 8.85938L4.771 2.625H21.229ZM22.1 18.375H3.9C3.18203 18.375 2.6 17.7874 2.6 17.0625V4.26563L12.22 11.55C12.445 11.7204 12.7187 11.8125 13 11.8125C13.2813 11.8125 13.555 11.7204 13.78 11.55L23.4 4.26563V17.0625C23.4 17.7874 22.818 18.375 22.1 18.375Z" fill="black"/>
</svg>
