<svg xmlns="http://www.w3.org/2000/svg" width="288.977" height="263.75" viewBox="0 0 288.977 263.75"><defs><style>.a{fill:#a895d8;}.b{fill:#d859d8;}.c{fill:#8859d8;}.d{fill:#5983d8;}.e{fill:#5d59d8;}.f{fill:#7d59d8;}.g{fill:#8582d8;}.h,.i,.j{fill:none;stroke-linecap:round;stroke-linejoin:round;stroke-width:2px;}.h{stroke:#5983d8;}.i{stroke:#001c63;}.j{stroke:#6c84c2;}</style></defs><g transform="translate(-7 -7.65)"><path class="a" d="M82.226,51.632V90.263L16,51.632,82.226,13Z" transform="translate(36.15 19.657)"/><path class="b" d="M82.226,51.632H16L82.226,13Z" transform="translate(36.15 19.657)"/><path class="c" d="M47.39,36.157V74.788L15.16,55.969,46.507,35.66Z" transform="translate(32.355 122.053)"/><path class="b" d="M15,32.25,47.23,51.069,15.883,71.378l-.883-.5Z" transform="translate(31.632 106.644)"/><path class="d" d="M13.519,25.519,30.075,58.632v77.263l1.766,1.049L9.49,151.513,8,150.63V21.821L11.146,20l4.194,2.428Z" transform="translate(0 51.288)"/><path class="d" d="M64.188,51.621v27.1l-.221.331L25.556,56.643,9,23.531l1.821-3.091Z" transform="translate(4.519 53.277)"/><path class="d" d="M47.521,32.118v130.52l.828,1.435-.828.5-7.34-4.3L42,157.119,25.446,124.006V46.743L23.68,45.694l22.3-14.514Z" transform="translate(70.855 101.809)"/><path class="d" d="M52.107,63.228,68.663,96.341l-1.821,3.146L17.78,70.844l1.214-2.1V46.672l1.214-2.042Z" transform="translate(44.194 162.586)"/><path class="d" d="M63.182,60.175l-1.214,2.042V84.292l-1.214,2.1L8.27,55.76,30.621,41.19Z" transform="translate(1.22 147.042)"/><path class="e" d="M76.78,34.859v77.263l-31.9-18.6L12.32,74.539l15.673-10.21,32.23,18.819V44.516l-.883-.5L75.014,33.81Z" transform="translate(19.521 113.693)"/><path class="f" d="M28.556,55.974V94.605l.883.5-15.673,10.21L12,104.263V27L50.411,49.406,76.46,64.583,60.786,74.793Z" transform="translate(18.075 82.92)"/><path class="d" d="M67.3,54.181,45.009,68.7,18.96,53.518l.221-.331V26.09Z" transform="translate(49.526 78.808)"/><path class="g" d="M115.8,71.288V32.657L49.575,71.288,115.8,109.92Zm0-62.638L223.03,71.288,115.8,133.927V132l-1.545.993L66.131,104.9,12.764,73.717,8.57,71.288Z" transform="translate(2.576 0)"/><path class="h" d="M225.606,20l3.146,1.821V150.63L119.2,214.593l-.828.5-7.34-4.3L61.974,182.142,9.49,151.513,8,150.63V21.821L11.146,20" transform="translate(0 51.288)"/><path class="i" d="M223.03,71.288,115.8,133.927l-1.545-.938L66.131,104.9,12.764,73.717,8.57,71.288,115.8,8.65Z" transform="translate(2.576 0)"/><path class="i" d="M28,31V163.451" transform="translate(90.376 100.995)"/><path class="i" d="M12,27v77.263l1.766,1.049L46.327,124.3l31.9,18.6V65.632L76.46,64.583,50.411,49.406Z" transform="translate(18.075 82.92)"/><path class="i" d="M47.23,51.069,15,32.25V70.882l.883.5L48.113,90.2V51.566Z" transform="translate(31.632 106.644)"/><path class="i" d="M82.226,13,16,51.632,82.226,90.263V13Z" transform="translate(36.15 19.657)"/><line class="i" x2="99.338" transform="translate(118.376 71.288)"/><path class="i" d="M19,26V53.594" transform="translate(49.707 78.401)"/><path class="i" d="M117.156,31l-1.545.993-22.3,14.514L77.641,56.718,46.295,77.027,30.621,87.237,8.27,101.806" transform="translate(1.22 100.995)"/><line class="i" y2="22.075" transform="translate(63.188 209.258)"/><line class="i" x2="16.556" y2="33.113" transform="translate(96.301 225.815)"/><line class="i" x2="16.556" y2="33.113" transform="translate(13.519 76.807)"/><path class="d" d="M132.718,116.2V43.9l-85.6,49.283V191.31L132.5,141.972Zm9.658,4.139V151.63L32.828,215.593,32,214.158V83.638L139.23,21l3.146,1.821Z" transform="translate(108.451 55.807)"/><path class="j" d="M40,36c11.038,0,11.038,11.038,22.075,11.038S73.113,36,84.15,36a16.556,16.556,0,0,1,12.472,6.9,12.8,12.8,0,0,0,9.6,4.139h0C117.263,47.038,117.263,36,128.3,36s11.038,11.038,22.075,11.038" transform="translate(144.601 123.589)"/></g></svg>