<svg width="15" height="19" viewBox="0 0 15 19" fill="none" xmlns="http://www.w3.org/2000/svg">
<path d="M14.2303 3.34C12.0592 3.16 10.0263 2.22 8.48684 0.66L8.09211 0.24C7.93421 0.08 7.71711 0 7.5 0C7.2829 0 7.06579 0.08 6.9079 0.24L6.51316 0.66C4.97368 2.22 2.94079 3.16 0.769737 3.34C0.335526 3.38 0 3.74 0 4.18V6.6C0 11.68 2.72368 16.4 7.08553 18.9C7.20395 18.98 7.36184 19 7.5 19C7.63816 19 7.77632 18.96 7.91447 18.9C12.2763 16.4 15 11.68 15 6.6V4.18C15 3.74 14.6645 3.38 14.2303 3.34ZM11.1118 7.88L7.42105 11.94C7.26316 12.1 7.04605 12.2 6.82895 12.22H6.80921C6.59211 12.22 6.375 12.14 6.21711 11.98L4.14474 9.84C3.82895 9.52 3.82895 8.98 4.14474 8.66C4.46053 8.34 4.99342 8.34 5.30921 8.66L6.78947 10.16L9.88816 6.74C10.2039 6.4 10.7171 6.38 11.0526 6.68C11.3882 7 11.4079 7.54 11.1118 7.88Z" fill="black"/>
</svg>
